# xmcd
#
# Track frame offsets: 
#        151
#        18682
#        32566
#        47856
#        67567
#        86662
#        102778
#        117515
#        134184
#        150762
#        167134
#
# Disc length: 2319 seconds
#
# Revision: 0
# Processed by: cddbd v1.5.2PL0 Copyright (c) Steve Scherf et al.
# Submitted via: ExactAudioCopy v0.99pb5
#
DISCID=89090d0b
DTITLE=Bearfoot - Doors and Windows
DYEAR=2009
DGENRE=Country
TTITLE0=Oh My Love
TTITLE1=Single Girl
TTITLE2=Heaven
TTITLE3=Doors And Windows
TTITLE4=Before I Go
TTITLE5=Caroline
TTITLE6=Don't Let Me Down
TTITLE7=My One True Love
TTITLE8=Time Is No Medicine
TTITLE9=Northward Bound
TTITLE10=Good In The Kitchen
EXTD=
EXTT0=
EXTT1=
EXTT2=
EXTT3=
EXTT4=
EXTT5=
EXTT6=
EXTT7=
EXTT8=
EXTT9=
EXTT10=
PLAYORDER=
